<mxfile host="app.diagrams.net" agent="Mozilla/5.0 (Windows NT 10.0; Win64; x64) AppleWebKit/537.36 (KHTML, like Gecko) Chrome/127.0.0.0 Safari/537.36" version="24.7.7">
  <diagram name="第 1 页" id="Ks2vNZVqEzAdOs3WgrEU">
    <mxGraphModel dx="1371" dy="786" grid="1" gridSize="10" guides="1" tooltips="1" connect="1" arrows="1" fold="1" page="1" pageScale="1" pageWidth="827" pageHeight="1169" math="0" shadow="0">
      <root>
        <mxCell id="0" />
        <mxCell id="1" parent="0" />
        <mxCell id="r0TrouKlHz-d5kefhsSM-60" value="" style="rounded=0;whiteSpace=wrap;html=1;fillColor=#f8cecc;strokeColor=#b85450;" vertex="1" parent="1">
          <mxGeometry x="320" y="1000" width="305" height="190" as="geometry" />
        </mxCell>
        <mxCell id="r0TrouKlHz-d5kefhsSM-19" value="" style="rounded=0;whiteSpace=wrap;html=1;fillColor=#ffe6cc;strokeColor=#d79b00;" vertex="1" parent="1">
          <mxGeometry x="330" y="170" width="305" height="190" as="geometry" />
        </mxCell>
        <mxCell id="r0TrouKlHz-d5kefhsSM-4" style="edgeStyle=orthogonalEdgeStyle;rounded=0;orthogonalLoop=1;jettySize=auto;html=1;exitX=1;exitY=0.5;exitDx=0;exitDy=0;entryX=0;entryY=0.5;entryDx=0;entryDy=0;" edge="1" parent="1" source="r0TrouKlHz-d5kefhsSM-1" target="r0TrouKlHz-d5kefhsSM-3">
          <mxGeometry relative="1" as="geometry" />
        </mxCell>
        <mxCell id="r0TrouKlHz-d5kefhsSM-1" value="&lt;font style=&quot;font-size: 16px;&quot;&gt;layerandelementmanager&lt;/font&gt;" style="rounded=0;whiteSpace=wrap;html=1;fontSize=16;" vertex="1" parent="1">
          <mxGeometry x="20" y="230" width="230" height="60" as="geometry" />
        </mxCell>
        <mxCell id="r0TrouKlHz-d5kefhsSM-10" style="rounded=0;orthogonalLoop=1;jettySize=auto;html=1;exitX=1;exitY=0;exitDx=0;exitDy=0;entryX=0;entryY=0.5;entryDx=0;entryDy=0;" edge="1" parent="1" source="r0TrouKlHz-d5kefhsSM-3" target="r0TrouKlHz-d5kefhsSM-7">
          <mxGeometry relative="1" as="geometry" />
        </mxCell>
        <mxCell id="r0TrouKlHz-d5kefhsSM-11" style="rounded=0;orthogonalLoop=1;jettySize=auto;html=1;exitX=1;exitY=0.5;exitDx=0;exitDy=0;" edge="1" parent="1" source="r0TrouKlHz-d5kefhsSM-3" target="r0TrouKlHz-d5kefhsSM-8">
          <mxGeometry relative="1" as="geometry" />
        </mxCell>
        <mxCell id="r0TrouKlHz-d5kefhsSM-12" style="rounded=0;orthogonalLoop=1;jettySize=auto;html=1;exitX=1;exitY=1;exitDx=0;exitDy=0;entryX=0;entryY=0.5;entryDx=0;entryDy=0;" edge="1" parent="1" source="r0TrouKlHz-d5kefhsSM-3" target="r0TrouKlHz-d5kefhsSM-9">
          <mxGeometry relative="1" as="geometry" />
        </mxCell>
        <mxCell id="r0TrouKlHz-d5kefhsSM-3" value="element（vector）" style="ellipse;whiteSpace=wrap;html=1;align=center;fontSize=15;" vertex="1" parent="1">
          <mxGeometry x="344" y="230" width="140" height="60" as="geometry" />
        </mxCell>
        <mxCell id="r0TrouKlHz-d5kefhsSM-5" value="contain" style="text;html=1;align=center;verticalAlign=middle;resizable=0;points=[];autosize=1;strokeColor=none;fillColor=none;" vertex="1" parent="1">
          <mxGeometry x="260" y="238" width="60" height="30" as="geometry" />
        </mxCell>
        <mxCell id="r0TrouKlHz-d5kefhsSM-14" style="edgeStyle=orthogonalEdgeStyle;rounded=0;orthogonalLoop=1;jettySize=auto;html=1;exitX=1;exitY=0.5;exitDx=0;exitDy=0;entryX=0;entryY=0.5;entryDx=0;entryDy=0;fillColor=#f8cecc;strokeColor=#b85450;" edge="1" parent="1" source="r0TrouKlHz-d5kefhsSM-7" target="r0TrouKlHz-d5kefhsSM-13">
          <mxGeometry relative="1" as="geometry" />
        </mxCell>
        <mxCell id="r0TrouKlHz-d5kefhsSM-7" value="ptr1" style="ellipse;whiteSpace=wrap;html=1;align=center;fontStyle=4;fontSize=15;" vertex="1" parent="1">
          <mxGeometry x="530" y="200" width="90" height="30" as="geometry" />
        </mxCell>
        <mxCell id="r0TrouKlHz-d5kefhsSM-17" style="edgeStyle=orthogonalEdgeStyle;rounded=0;orthogonalLoop=1;jettySize=auto;html=1;exitX=1;exitY=0.5;exitDx=0;exitDy=0;entryX=0;entryY=0.5;entryDx=0;entryDy=0;" edge="1" parent="1" source="r0TrouKlHz-d5kefhsSM-8" target="r0TrouKlHz-d5kefhsSM-15">
          <mxGeometry relative="1" as="geometry" />
        </mxCell>
        <mxCell id="r0TrouKlHz-d5kefhsSM-8" value="ptr2" style="ellipse;whiteSpace=wrap;html=1;align=center;fontStyle=4;fontSize=15;" vertex="1" parent="1">
          <mxGeometry x="530" y="260" width="90" height="30" as="geometry" />
        </mxCell>
        <mxCell id="r0TrouKlHz-d5kefhsSM-18" style="edgeStyle=orthogonalEdgeStyle;rounded=0;orthogonalLoop=1;jettySize=auto;html=1;exitX=1;exitY=0.5;exitDx=0;exitDy=0;entryX=0;entryY=0.5;entryDx=0;entryDy=0;" edge="1" parent="1" source="r0TrouKlHz-d5kefhsSM-9" target="r0TrouKlHz-d5kefhsSM-16">
          <mxGeometry relative="1" as="geometry" />
        </mxCell>
        <mxCell id="r0TrouKlHz-d5kefhsSM-9" value="ptr3" style="ellipse;whiteSpace=wrap;html=1;align=center;fontStyle=4;fontSize=15;" vertex="1" parent="1">
          <mxGeometry x="530" y="320" width="90" height="30" as="geometry" />
        </mxCell>
        <mxCell id="r0TrouKlHz-d5kefhsSM-13" value="element memory" style="rounded=1;arcSize=10;whiteSpace=wrap;html=1;align=center;" vertex="1" parent="1">
          <mxGeometry x="720" y="195" width="100" height="40" as="geometry" />
        </mxCell>
        <mxCell id="r0TrouKlHz-d5kefhsSM-15" value="element memory" style="rounded=1;arcSize=10;whiteSpace=wrap;html=1;align=center;" vertex="1" parent="1">
          <mxGeometry x="720" y="255" width="100" height="40" as="geometry" />
        </mxCell>
        <mxCell id="r0TrouKlHz-d5kefhsSM-16" value="element memory" style="rounded=1;arcSize=10;whiteSpace=wrap;html=1;align=center;" vertex="1" parent="1">
          <mxGeometry x="720" y="315" width="100" height="40" as="geometry" />
        </mxCell>
        <mxCell id="r0TrouKlHz-d5kefhsSM-20" value="vector memory" style="text;html=1;align=center;verticalAlign=middle;resizable=0;points=[];autosize=1;strokeColor=none;fillColor=none;fontSize=14;" vertex="1" parent="1">
          <mxGeometry x="330" y="170" width="120" height="30" as="geometry" />
        </mxCell>
        <mxCell id="r0TrouKlHz-d5kefhsSM-21" value="point" style="text;html=1;align=center;verticalAlign=middle;resizable=0;points=[];autosize=1;strokeColor=none;fillColor=none;fontSize=13;" vertex="1" parent="1">
          <mxGeometry x="650" y="190" width="50" height="30" as="geometry" />
        </mxCell>
        <mxCell id="r0TrouKlHz-d5kefhsSM-30" style="edgeStyle=orthogonalEdgeStyle;rounded=0;orthogonalLoop=1;jettySize=auto;html=1;exitX=1;exitY=0.5;exitDx=0;exitDy=0;entryX=0;entryY=0.5;entryDx=0;entryDy=0;" edge="1" parent="1" source="r0TrouKlHz-d5kefhsSM-23" target="r0TrouKlHz-d5kefhsSM-29">
          <mxGeometry relative="1" as="geometry" />
        </mxCell>
        <mxCell id="r0TrouKlHz-d5kefhsSM-23" value="Use Entity" style="whiteSpace=wrap;html=1;align=center;fontSize=17;" vertex="1" parent="1">
          <mxGeometry x="20" y="470" width="210" height="90" as="geometry" />
        </mxCell>
        <mxCell id="r0TrouKlHz-d5kefhsSM-28" value="What if vector capacity full ?" style="text;html=1;align=center;verticalAlign=middle;resizable=0;points=[];autosize=1;strokeColor=none;fillColor=none;fontSize=19;" vertex="1" parent="1">
          <mxGeometry x="280" y="630" width="260" height="40" as="geometry" />
        </mxCell>
        <mxCell id="r0TrouKlHz-d5kefhsSM-73" style="rounded=0;orthogonalLoop=1;jettySize=auto;html=1;exitX=0.5;exitY=0;exitDx=0;exitDy=0;entryX=0;entryY=1;entryDx=0;entryDy=0;dashed=1;fillColor=#f8cecc;strokeColor=#b85450;" edge="1" parent="1" source="r0TrouKlHz-d5kefhsSM-29" target="r0TrouKlHz-d5kefhsSM-7">
          <mxGeometry relative="1" as="geometry" />
        </mxCell>
        <mxCell id="r0TrouKlHz-d5kefhsSM-29" value="operation element" style="ellipse;whiteSpace=wrap;html=1;align=center;fontSize=14;" vertex="1" parent="1">
          <mxGeometry x="300" y="490" width="130" height="50" as="geometry" />
        </mxCell>
        <mxCell id="r0TrouKlHz-d5kefhsSM-78" style="edgeStyle=orthogonalEdgeStyle;rounded=0;orthogonalLoop=1;jettySize=auto;html=1;exitX=0;exitY=0.5;exitDx=0;exitDy=0;entryX=1;entryY=0.5;entryDx=0;entryDy=0;fillColor=#f8cecc;strokeColor=#b85450;" edge="1" parent="1" source="r0TrouKlHz-d5kefhsSM-31" target="r0TrouKlHz-d5kefhsSM-29">
          <mxGeometry relative="1" as="geometry" />
        </mxCell>
        <mxCell id="r0TrouKlHz-d5kefhsSM-31" value="&lt;span&gt;Operating&lt;/span&gt;" style="ellipse;shape=doubleEllipse;margin=3;whiteSpace=wrap;html=1;align=center;fontStyle=1" vertex="1" parent="1">
          <mxGeometry x="530" y="495" width="100" height="40" as="geometry" />
        </mxCell>
        <mxCell id="r0TrouKlHz-d5kefhsSM-77" style="edgeStyle=orthogonalEdgeStyle;rounded=0;orthogonalLoop=1;jettySize=auto;html=1;exitX=0.25;exitY=1;exitDx=0;exitDy=0;entryX=0.25;entryY=0;entryDx=0;entryDy=0;" edge="1" parent="1" source="r0TrouKlHz-d5kefhsSM-33" target="r0TrouKlHz-d5kefhsSM-60">
          <mxGeometry relative="1" as="geometry" />
        </mxCell>
        <mxCell id="r0TrouKlHz-d5kefhsSM-33" value="" style="rounded=0;whiteSpace=wrap;html=1;fillColor=#ffe6cc;strokeColor=#d79b00;" vertex="1" parent="1">
          <mxGeometry x="320" y="760" width="305" height="190" as="geometry" />
        </mxCell>
        <mxCell id="r0TrouKlHz-d5kefhsSM-34" style="edgeStyle=orthogonalEdgeStyle;rounded=0;orthogonalLoop=1;jettySize=auto;html=1;exitX=1;exitY=0.5;exitDx=0;exitDy=0;entryX=0;entryY=0.5;entryDx=0;entryDy=0;" edge="1" parent="1" source="r0TrouKlHz-d5kefhsSM-35" target="r0TrouKlHz-d5kefhsSM-39">
          <mxGeometry relative="1" as="geometry" />
        </mxCell>
        <mxCell id="r0TrouKlHz-d5kefhsSM-35" value="&lt;font style=&quot;font-size: 16px;&quot;&gt;layerandelementmanager&lt;/font&gt;" style="rounded=0;whiteSpace=wrap;html=1;fontSize=16;" vertex="1" parent="1">
          <mxGeometry x="10" y="820" width="230" height="60" as="geometry" />
        </mxCell>
        <mxCell id="r0TrouKlHz-d5kefhsSM-36" style="rounded=0;orthogonalLoop=1;jettySize=auto;html=1;exitX=1;exitY=0;exitDx=0;exitDy=0;entryX=0;entryY=0.5;entryDx=0;entryDy=0;" edge="1" parent="1" source="r0TrouKlHz-d5kefhsSM-39" target="r0TrouKlHz-d5kefhsSM-43">
          <mxGeometry relative="1" as="geometry" />
        </mxCell>
        <mxCell id="r0TrouKlHz-d5kefhsSM-37" style="rounded=0;orthogonalLoop=1;jettySize=auto;html=1;exitX=1;exitY=0.5;exitDx=0;exitDy=0;" edge="1" parent="1" source="r0TrouKlHz-d5kefhsSM-39" target="r0TrouKlHz-d5kefhsSM-45">
          <mxGeometry relative="1" as="geometry" />
        </mxCell>
        <mxCell id="r0TrouKlHz-d5kefhsSM-38" style="rounded=0;orthogonalLoop=1;jettySize=auto;html=1;exitX=1;exitY=1;exitDx=0;exitDy=0;entryX=0;entryY=0.5;entryDx=0;entryDy=0;" edge="1" parent="1" source="r0TrouKlHz-d5kefhsSM-39" target="r0TrouKlHz-d5kefhsSM-47">
          <mxGeometry relative="1" as="geometry" />
        </mxCell>
        <mxCell id="r0TrouKlHz-d5kefhsSM-39" value="element（vector）" style="ellipse;whiteSpace=wrap;html=1;align=center;fontSize=15;" vertex="1" parent="1">
          <mxGeometry x="334" y="820" width="140" height="60" as="geometry" />
        </mxCell>
        <mxCell id="r0TrouKlHz-d5kefhsSM-40" value="contain" style="text;html=1;align=center;verticalAlign=middle;resizable=0;points=[];autosize=1;strokeColor=none;fillColor=none;" vertex="1" parent="1">
          <mxGeometry x="250" y="828" width="60" height="30" as="geometry" />
        </mxCell>
        <mxCell id="r0TrouKlHz-d5kefhsSM-41" style="edgeStyle=orthogonalEdgeStyle;rounded=0;orthogonalLoop=1;jettySize=auto;html=1;exitX=1;exitY=0.5;exitDx=0;exitDy=0;entryX=0;entryY=0.5;entryDx=0;entryDy=0;" edge="1" parent="1" source="r0TrouKlHz-d5kefhsSM-43" target="r0TrouKlHz-d5kefhsSM-48">
          <mxGeometry relative="1" as="geometry" />
        </mxCell>
        <mxCell id="r0TrouKlHz-d5kefhsSM-43" value="ptr1" style="ellipse;whiteSpace=wrap;html=1;align=center;fontStyle=4;fontSize=15;dashed=1;" vertex="1" parent="1">
          <mxGeometry x="520" y="790" width="90" height="30" as="geometry" />
        </mxCell>
        <mxCell id="r0TrouKlHz-d5kefhsSM-44" style="edgeStyle=orthogonalEdgeStyle;rounded=0;orthogonalLoop=1;jettySize=auto;html=1;exitX=1;exitY=0.5;exitDx=0;exitDy=0;entryX=0;entryY=0.5;entryDx=0;entryDy=0;" edge="1" parent="1" source="r0TrouKlHz-d5kefhsSM-45" target="r0TrouKlHz-d5kefhsSM-49">
          <mxGeometry relative="1" as="geometry" />
        </mxCell>
        <mxCell id="r0TrouKlHz-d5kefhsSM-45" value="ptr2" style="ellipse;whiteSpace=wrap;html=1;align=center;fontStyle=4;fontSize=15;dashed=1;" vertex="1" parent="1">
          <mxGeometry x="520" y="850" width="90" height="30" as="geometry" />
        </mxCell>
        <mxCell id="r0TrouKlHz-d5kefhsSM-46" style="edgeStyle=orthogonalEdgeStyle;rounded=0;orthogonalLoop=1;jettySize=auto;html=1;exitX=1;exitY=0.5;exitDx=0;exitDy=0;entryX=0;entryY=0.5;entryDx=0;entryDy=0;" edge="1" parent="1" source="r0TrouKlHz-d5kefhsSM-47" target="r0TrouKlHz-d5kefhsSM-50">
          <mxGeometry relative="1" as="geometry" />
        </mxCell>
        <mxCell id="r0TrouKlHz-d5kefhsSM-47" value="ptr3" style="ellipse;whiteSpace=wrap;html=1;align=center;fontStyle=4;fontSize=15;" vertex="1" parent="1">
          <mxGeometry x="520" y="910" width="90" height="30" as="geometry" />
        </mxCell>
        <mxCell id="r0TrouKlHz-d5kefhsSM-48" value="element memory" style="rounded=1;arcSize=10;whiteSpace=wrap;html=1;align=center;" vertex="1" parent="1">
          <mxGeometry x="710" y="785" width="100" height="40" as="geometry" />
        </mxCell>
        <mxCell id="r0TrouKlHz-d5kefhsSM-49" value="element memory" style="rounded=1;arcSize=10;whiteSpace=wrap;html=1;align=center;" vertex="1" parent="1">
          <mxGeometry x="710" y="845" width="100" height="40" as="geometry" />
        </mxCell>
        <mxCell id="r0TrouKlHz-d5kefhsSM-50" value="element memory" style="rounded=1;arcSize=10;whiteSpace=wrap;html=1;align=center;" vertex="1" parent="1">
          <mxGeometry x="710" y="905" width="100" height="40" as="geometry" />
        </mxCell>
        <mxCell id="r0TrouKlHz-d5kefhsSM-51" value="vector memory" style="text;html=1;align=center;verticalAlign=middle;resizable=0;points=[];autosize=1;strokeColor=none;fillColor=none;fontSize=14;" vertex="1" parent="1">
          <mxGeometry x="320" y="760" width="120" height="30" as="geometry" />
        </mxCell>
        <mxCell id="r0TrouKlHz-d5kefhsSM-52" value="point" style="text;html=1;align=center;verticalAlign=middle;resizable=0;points=[];autosize=1;strokeColor=none;fillColor=none;fontSize=13;" vertex="1" parent="1">
          <mxGeometry x="640" y="780" width="50" height="30" as="geometry" />
        </mxCell>
        <mxCell id="r0TrouKlHz-d5kefhsSM-53" style="edgeStyle=orthogonalEdgeStyle;rounded=0;orthogonalLoop=1;jettySize=auto;html=1;exitX=1;exitY=0.5;exitDx=0;exitDy=0;entryX=0;entryY=0.5;entryDx=0;entryDy=0;" edge="1" parent="1" source="r0TrouKlHz-d5kefhsSM-54" target="r0TrouKlHz-d5kefhsSM-56">
          <mxGeometry relative="1" as="geometry" />
        </mxCell>
        <mxCell id="r0TrouKlHz-d5kefhsSM-54" value="Use Entity" style="whiteSpace=wrap;html=1;align=center;fontSize=17;" vertex="1" parent="1">
          <mxGeometry y="1300" width="210" height="90" as="geometry" />
        </mxCell>
        <mxCell id="r0TrouKlHz-d5kefhsSM-56" value="operation element" style="ellipse;whiteSpace=wrap;html=1;align=center;fontSize=14;" vertex="1" parent="1">
          <mxGeometry x="280" y="1320" width="130" height="50" as="geometry" />
        </mxCell>
        <mxCell id="r0TrouKlHz-d5kefhsSM-79" style="edgeStyle=orthogonalEdgeStyle;rounded=0;orthogonalLoop=1;jettySize=auto;html=1;exitX=0;exitY=0.5;exitDx=0;exitDy=0;entryX=1;entryY=0.5;entryDx=0;entryDy=0;fillColor=#f8cecc;strokeColor=#b85450;" edge="1" parent="1" source="r0TrouKlHz-d5kefhsSM-57" target="r0TrouKlHz-d5kefhsSM-56">
          <mxGeometry relative="1" as="geometry" />
        </mxCell>
        <mxCell id="r0TrouKlHz-d5kefhsSM-57" value="Operating" style="ellipse;shape=doubleEllipse;margin=3;whiteSpace=wrap;html=1;align=center;fillColor=#f8cecc;strokeColor=#b85450;" vertex="1" parent="1">
          <mxGeometry x="510" y="1325" width="100" height="40" as="geometry" />
        </mxCell>
        <mxCell id="r0TrouKlHz-d5kefhsSM-62" value="new vector memory" style="text;html=1;align=center;verticalAlign=middle;resizable=0;points=[];autosize=1;strokeColor=none;fillColor=none;fontSize=14;" vertex="1" parent="1">
          <mxGeometry x="320" y="1010" width="150" height="30" as="geometry" />
        </mxCell>
        <mxCell id="r0TrouKlHz-d5kefhsSM-74" style="rounded=0;orthogonalLoop=1;jettySize=auto;html=1;exitX=1;exitY=0;exitDx=0;exitDy=0;entryX=0;entryY=0.5;entryDx=0;entryDy=0;" edge="1" parent="1" source="r0TrouKlHz-d5kefhsSM-67" target="r0TrouKlHz-d5kefhsSM-70">
          <mxGeometry relative="1" as="geometry" />
        </mxCell>
        <mxCell id="r0TrouKlHz-d5kefhsSM-75" style="rounded=0;orthogonalLoop=1;jettySize=auto;html=1;exitX=1;exitY=0.5;exitDx=0;exitDy=0;entryX=0;entryY=0.5;entryDx=0;entryDy=0;" edge="1" parent="1" source="r0TrouKlHz-d5kefhsSM-67" target="r0TrouKlHz-d5kefhsSM-71">
          <mxGeometry relative="1" as="geometry" />
        </mxCell>
        <mxCell id="r0TrouKlHz-d5kefhsSM-76" style="rounded=0;orthogonalLoop=1;jettySize=auto;html=1;exitX=1;exitY=1;exitDx=0;exitDy=0;entryX=0;entryY=0.5;entryDx=0;entryDy=0;" edge="1" parent="1" source="r0TrouKlHz-d5kefhsSM-67" target="r0TrouKlHz-d5kefhsSM-72">
          <mxGeometry relative="1" as="geometry" />
        </mxCell>
        <mxCell id="r0TrouKlHz-d5kefhsSM-67" value="element（vector）" style="ellipse;whiteSpace=wrap;html=1;align=center;fontSize=15;" vertex="1" parent="1">
          <mxGeometry x="330" y="1080" width="140" height="60" as="geometry" />
        </mxCell>
        <mxCell id="r0TrouKlHz-d5kefhsSM-69" value="copying" style="text;html=1;align=center;verticalAlign=middle;resizable=0;points=[];autosize=1;strokeColor=none;fillColor=none;strokeWidth=4;fontSize=15;" vertex="1" parent="1">
          <mxGeometry x="404" y="960" width="80" height="30" as="geometry" />
        </mxCell>
        <mxCell id="r0TrouKlHz-d5kefhsSM-70" value="ptr1" style="ellipse;whiteSpace=wrap;html=1;align=center;fontStyle=4;fontSize=15;" vertex="1" parent="1">
          <mxGeometry x="510" y="1040" width="90" height="30" as="geometry" />
        </mxCell>
        <mxCell id="r0TrouKlHz-d5kefhsSM-71" value="ptr2" style="ellipse;whiteSpace=wrap;html=1;align=center;fontStyle=4;fontSize=15;" vertex="1" parent="1">
          <mxGeometry x="510" y="1095" width="90" height="30" as="geometry" />
        </mxCell>
        <mxCell id="r0TrouKlHz-d5kefhsSM-72" value="ptr3" style="ellipse;whiteSpace=wrap;html=1;align=center;fontStyle=4;fontSize=15;" vertex="1" parent="1">
          <mxGeometry x="510" y="1150" width="90" height="30" as="geometry" />
        </mxCell>
        <mxCell id="r0TrouKlHz-d5kefhsSM-80" value="Relaese" style="text;html=1;align=center;verticalAlign=middle;resizable=0;points=[];autosize=1;strokeColor=none;fillColor=none;" vertex="1" parent="1">
          <mxGeometry x="525" y="760" width="70" height="30" as="geometry" />
        </mxCell>
      </root>
    </mxGraphModel>
  </diagram>
</mxfile>
